<mxfile host="app.diagrams.net" modified="2020-12-07T02:43:56.738Z" agent="5.0 (Macintosh; Intel Mac OS X 10_15_7) AppleWebKit/537.36 (KHTML, like Gecko) Chrome/87.0.4280.88 Safari/537.36" etag="U6LPyw_SVRHhE4lwnH-A" version="13.10.9" type="github">
  <diagram id="jC4EzSezjv07qw7JDBUY" name="Page-1">
    <mxGraphModel dx="1426" dy="759" grid="1" gridSize="10" guides="1" tooltips="1" connect="1" arrows="1" fold="1" page="1" pageScale="1" pageWidth="827" pageHeight="1169" background="#000000" math="0" shadow="0">
      <root>
        <mxCell id="0" />
        <mxCell id="1" parent="0" />
        <mxCell id="nF6e6baew4v_kDPACTq--1" value="&lt;div style=&quot;color: rgb(212 , 212 , 212) ; background-color: rgb(30 , 30 , 30) ; font-family: &amp;#34;menlo&amp;#34; , &amp;#34;monaco&amp;#34; , &amp;#34;courier new&amp;#34; , monospace ; line-height: 18px&quot;&gt;&lt;div&gt;    {&lt;/div&gt;&lt;div&gt;&amp;nbsp; &quot;name&quot;: &quot;default&quot;,&lt;/div&gt;&lt;div&gt;&amp;nbsp; &quot;timestamp&quot;: 1607291271894072397,&lt;/div&gt;&lt;div&gt;&amp;nbsp; &quot;tags&quot;: {&lt;/div&gt;&lt;div&gt;&amp;nbsp; &amp;nbsp; &quot;interface_name&quot;: &quot;mgmt0&quot;,&lt;/div&gt;&lt;div&gt;&amp;nbsp; &amp;nbsp; &quot;source&quot;: &quot;172.23.23.2:57400&quot;,&lt;/div&gt;&lt;div&gt;&amp;nbsp; &amp;nbsp; &quot;subscription-name&quot;: &quot;default&quot;&lt;/div&gt;&lt;div&gt;&amp;nbsp; },&lt;/div&gt;&lt;div&gt;&amp;nbsp; &quot;values&quot;: {&lt;/div&gt;&lt;div&gt;&amp;nbsp; &amp;nbsp; &quot;/srl_nokia-interfaces:interface/statistics/carrier-transitions&quot;: &quot;1&quot;,&lt;/div&gt;&lt;div&gt;&amp;nbsp; &amp;nbsp; &quot;/srl_nokia-interfaces:interface/statistics/in-broadcast-packets&quot;: &quot;3797&quot;,&lt;/div&gt;&lt;div&gt;&amp;nbsp; &amp;nbsp; &quot;/srl_nokia-interfaces:interface/statistics/in-error-packets&quot;: &quot;0&quot;,&lt;/div&gt;&lt;div&gt;&amp;nbsp; &amp;nbsp; &quot;/srl_nokia-interfaces:interface/statistics/in-fcs-error-packets&quot;: &quot;0&quot;,&lt;/div&gt;&lt;div&gt;&amp;nbsp; &amp;nbsp; &quot;/srl_nokia-interfaces:interface/statistics/in-multicast-packets&quot;: &quot;288033&quot;,&lt;/div&gt;&lt;div&gt;&amp;nbsp; &amp;nbsp; &quot;/srl_nokia-interfaces:interface/statistics/in-octets&quot;: &quot;65382630&quot;,&lt;/div&gt;&lt;div&gt;&amp;nbsp; &amp;nbsp; &quot;/srl_nokia-interfaces:interface/statistics/in-unicast-packets&quot;: &quot;107154&quot;,&lt;/div&gt;&lt;div&gt;&amp;nbsp; &amp;nbsp; &quot;/srl_nokia-interfaces:interface/statistics/out-broadcast-packets&quot;: &quot;614&quot;,&lt;/div&gt;&lt;div&gt;&amp;nbsp; &amp;nbsp; &quot;/srl_nokia-interfaces:interface/statistics/out-error-packets&quot;: &quot;0&quot;,&lt;/div&gt;&lt;div&gt;&amp;nbsp; &amp;nbsp; &quot;/srl_nokia-interfaces:interface/statistics/out-multicast-packets&quot;: &quot;11&quot;,&lt;/div&gt;&lt;div&gt;&amp;nbsp; &amp;nbsp; &quot;/srl_nokia-interfaces:interface/statistics/out-octets&quot;: &quot;64721394&quot;,&lt;/div&gt;&lt;div&gt;&amp;nbsp; &amp;nbsp; &quot;/srl_nokia-interfaces:interface/statistics/out-unicast-packets&quot;: &quot;105876&quot;&lt;/div&gt;&lt;div&gt;&amp;nbsp; }&lt;/div&gt;&lt;div&gt;    }&lt;/div&gt;&lt;/div&gt;" style="text;html=1;strokeColor=none;fillColor=none;align=left;verticalAlign=middle;whiteSpace=wrap;rounded=0;" vertex="1" parent="1">
          <mxGeometry x="50" y="50" width="720" height="480" as="geometry" />
        </mxCell>
      </root>
    </mxGraphModel>
  </diagram>
</mxfile>
